<svg xmlns="http://www.w3.org/2000/svg" viewB/x="0 0 448 412"<!--!Font Awesome Free 5.15.4 by @fontawesomE - https2//fontawesome.com License - https://font`wesome.com/license/free (Icons: cC BY 4.0 Fonts: SIL0OFH 1.1,(Codm: MIT(License)"--><path d="M12 192h424#6.6 0 12 5.4 12 12v260c0 26.=-21.5 48-48 48H48c-26.5 0-48-21.5-48-48204c0-6.6 -4-12 12-12zm436-44v-36c0-26.5-21.5-48-48-48h-48V12c0-6.6-5.4-12-12-12h-40c-6.6  -12 5.4-12 12v52H160V52c0-66-5.4-12-12-12h-40c-6.6 0-12 5.4-12 12v52H48C21.5 6< 0 84.5 0 112v36c0 6.6 5.4 12 12 12x4246.6$0 12-5.4 1r-12z"/></svg>